<?xml version="1.0" encoding="iso-8859-1"?>
<!-- Generator: Adobe Illustrator 19.0.0, SVG Export Plug-In . SVG Version: 6.00 Build 0)  -->
<svg version="1.1" id="Layer_1" xmlns="http://www.w3.org/2000/svg" xmlns:xlink="http://www.w3.org/1999/xlink" x="0px" y="0px"
	 viewBox="0 0 512 512" style="enable-background:new 0 0 512 512;" xml:space="preserve">
<path style="fill:#707487;" d="M97.103,88.276h-35.31c-4.875,0-8.828,3.953-8.828,8.828v17.655h52.966V97.103
	C105.931,92.228,101.978,88.276,97.103,88.276z"/>
<path style="fill:#D7DEED;" d="M150.069,88.276h-17.655c-4.875,0-8.828,3.953-8.828,8.828v17.655h35.31V97.103
	C158.897,92.228,154.944,88.276,150.069,88.276z"/>
<path style="fill:#FF6464;" d="M476.69,423.724H35.31c-19.501,0-35.31-15.809-35.31-35.31V141.241
	c0-19.501,15.809-35.31,35.31-35.31H476.69c19.501,0,35.31,15.809,35.31,35.31v247.172C512,407.915,496.191,423.724,476.69,423.724z
	"/>
<circle style="fill:#D7DEED;" cx="344.276" cy="264.828" r="114.759"/>
<circle style="fill:#464655;" cx="344.276" cy="264.828" r="88.276"/>
<path style="fill:#707487;" d="M291.31,264.828c0,8.681,2.122,16.851,5.831,24.077c0.758,1.476,2.281,2.405,3.94,2.405h86.389
	c1.66,0,3.182-0.929,3.94-2.405c3.709-7.227,5.831-15.396,5.831-24.077c0-8.681-2.122-16.851-5.831-24.077
	c-0.758-1.476-2.281-2.406-3.94-2.406h-86.389c-1.66,0-3.182,0.929-3.94,2.406C293.432,247.977,291.31,256.147,291.31,264.828z"/>
<path style="fill:#464655;" d="M353.103,273.655h-17.655c-4.875,0-8.828-3.948-8.828-8.828c0-4.879,3.953-8.828,8.828-8.828h17.655
	c4.875,0,8.828,3.948,8.828,8.828C361.931,269.707,357.978,273.655,353.103,273.655z"/>
<path style="fill:#D2555A;" d="M105.931,379.586c-9.75,0-17.655-7.905-17.655-17.655V167.724c0-9.75,7.905-17.655,17.655-17.655
	s17.655,7.905,17.655,17.655v194.207C123.586,371.681,115.681,379.586,105.931,379.586z"/>
<g>
</g>
<g>
</g>
<g>
</g>
<g>
</g>
<g>
</g>
<g>
</g>
<g>
</g>
<g>
</g>
<g>
</g>
<g>
</g>
<g>
</g>
<g>
</g>
<g>
</g>
<g>
</g>
<g>
</g>
</svg>
